#!OML:ASF H:\Dans Jumps\Project 1\Capture day 1\Session 1\subject.ASF
:FULLY-SPECIFIED
:DEGREES
352
root -0.177867 18.3047 -10.4556 14.8889 3.58208 0.27822
lowerback 6.86688 -0.498321 -2.11656
upperback 2.75061 -0.765845 1.79731
thorax -0.958264 -0.401015 3.09983
lowerneck -10.5944 -0.38882 -3.09297
upperneck 16.724 -0.0388461 0.361175
head 6.85437 -0.179604 0.624681
rclavicle 8.15017e-015 1.98785e-015
rhumerus 1.4231 -11.8933 -86.9456
rradius 26.9603
rwrist 30.6845
rhand -23.4109 -24.4971
rfingers 7.12502
rthumb 3.0463 -54.4551
lclavicle 8.15017e-015 1.98785e-015
lhumerus 5.67183 -0.260774 87.7051
lradius 18.7142
lwrist 10.1326
lhand -29.7532 -12.0413
lfingers 7.12502
lthumb -3.07913 17.9162
rfemur -19.2958 -6.36803 18.288
rtibia 36.7282
rfoot -0.191674 -4.41825
rtoes -13.6625
lfemur -23.2014 6.58576 -16.1383
ltibia 40.1492
lfoot 8.30887 0.0329972
ltoes -23.0611
353
root -0.171051 18.5694 -10.2258 14.2096 3.50779 0.25201
lowerback 5.89047 -0.529469 -2.08375
upperback 2.91349 -0.793239 1.763
thorax -0.247678 -0.426994 3.03194
lowerneck -9.68556 -0.349769 -3.11839
upperneck 17.1314 -0.0107479 0.359535
head 6.82521 -0.171749 0.631944
rclavicle 3.97569e-016 -1.43125e-014
rhumerus 1.58333 -10.8786 -87.1863
rradius 27.4451
rwrist 30.0624
rhand -23.4665 -24.1841
rfingers 7.12502
rthumb 2.9926 -54.1429
lclavicle 3.97569e-016 -1.43125e-014
lhumerus 5.56236 -2.04017 87.6408
lradius 19.9031
lwrist 12.2626
lhand -29.3922 -11.9031
lfingers 7.12502
lthumb -2.73047 18.0592
rfemur -17.5897 -6.21691 18.0097
rtibia 35.0267
rfoot 4.93198 -4.67132
rtoes -10.8155
lfemur -21.5187 6.12049 -15.8667
ltibia 38.3985
lfoot 13.7913 -0.355384
ltoes -20.1647
354
root -0.164085 18.8308 -10.001 13.5705 3.38786 0.2059
lowerback 5.00049 -0.541594 -2.04017
upperback 3.05664 -0.796389 1.73145
thorax 0.393596 -0.43893 2.96151
lowerneck -8.86977 -0.32181 -3.13283
upperneck 17.5616 0.0055975 0.346942
head 6.81962 -0.170035 0.63279
rclavicle -3.18055e-015 9.14409e-015
rhumerus 1.69963 -9.87889 -87.3891
rradius 27.9459
rwrist 29.5069
rhand -23.4875 -23.8787
rfingers 7.12502
rthumb 2.97233 -53.8377
lclavicle -3.18055e-015 9.14409e-015
lhumerus 5.38694 -3.67059 87.57
lradius 21.1243
lwrist 13.8845
lhand -29.1142 -11.7267
lfingers 7.12502
lthumb -2.46196 18.2388
rfemur -16.1352 -5.90085 17.766
rtibia 33.5774
rfoot 10.0312 -5.56475
rtoes -6.61401
lfemur -20.0224 5.57012 -15.614
ltibia 36.855
lfoot 19.1942 -0.225717
ltoes -16.1657
355
root -0.157263 19.0861 -9.7828 12.9944 3.24751 0.147476
lowerback 4.18725 -0.542764 -1.98277
upperback 3.16807 -0.786025 1.70007
thorax 0.959344 -0.441897 2.88512
lowerneck -8.15085 -0.305157 -3.13449
upperneck 18.0229 0.00865599 0.331613
head 6.84115 -0.174434 0.629561
rclavicle -2.38542e-015 2.38542e-015
rhumerus 1.76 -8.90736 -87.5601
rradius 28.4755
rwrist 28.9992
rhand -23.4227 -23.6753
rfingers 7.12502
rthumb 3.03487 -53.6334
lclavicle -2.38542e-015 2.38542e-015
lhumerus 5.15519 -5.17465 87.496
lradius 22.3397
lwrist 15.0365
lhand -28.9629 -11.6059
lfingers 7.12502
lthumb -2.31591 18.3613
rfemur -14.972 -5.49177 17.5726
rtibia 32.4606
rfoot 14.7052 -6.92357
rtoes -1.16224
lfemur -18.7733 5.00956 -15.3987
ltibia 35.6067
lfoot 23.9926 0.199326
ltoes -11.6129
